<?xml version="1.0" encoding="UTF-8" standalone="no"?>
<!-- Created with Inkscape (http://www.inkscape.org/) -->

<svg
   xmlns:dc="http://purl.org/dc/elements/1.1/"
   xmlns:cc="http://creativecommons.org/ns#"
   xmlns:rdf="http://www.w3.org/1999/02/22-rdf-syntax-ns#"
   xmlns:svg="http://www.w3.org/2000/svg"
   xmlns="http://www.w3.org/2000/svg"
   xmlns:sodipodi="http://sodipodi.sourceforge.net/DTD/sodipodi-0.dtd"
   xmlns:inkscape="http://www.inkscape.org/namespaces/inkscape"
   version="1.1"
   width="48"
   height="48"
   id="svg2816"
   inkscape:version="0.47 r22583"
   sodipodi:docname="my_profile_unpressed.svg">
  <metadata
     id="metadata3752">
    <rdf:RDF>
      <cc:Work
         rdf:about="">
        <dc:format>image/svg+xml</dc:format>
        <dc:type
           rdf:resource="http://purl.org/dc/dcmitype/StillImage" />
      </cc:Work>
    </rdf:RDF>
  </metadata>
  <sodipodi:namedview
     pagecolor="#ffffff"
     bordercolor="#666666"
     borderopacity="1"
     objecttolerance="10"
     gridtolerance="10"
     guidetolerance="10"
     inkscape:pageopacity="0"
     inkscape:pageshadow="2"
     inkscape:window-width="1366"
     inkscape:window-height="744"
     id="namedview3750"
     showgrid="false"
     inkscape:zoom="10.104167"
     inkscape:cx="17.616495"
     inkscape:cy="24"
     inkscape:window-x="0"
     inkscape:window-y="24"
     inkscape:window-maximized="1"
     inkscape:current-layer="g3616" />
  <defs
     id="defs2818">
    <inkscape:perspective
       sodipodi:type="inkscape:persp3d"
       inkscape:vp_x="0 : 24 : 1"
       inkscape:vp_y="0 : 1000 : 0"
       inkscape:vp_z="48 : 24 : 1"
       inkscape:persp3d-origin="24 : 16 : 1"
       id="perspective3754" />
  </defs>
  <g
     id="layer1"
     style="fill:#4387f9;fill-opacity:1">
    <rect
       width="48"
       height="48"
       ry="11.997434"
       x="0"
       y="0"
       id="rect2828"
       style="fill:#4387f9;fill-opacity:1" />
  </g>
  <g
     id="g3616">
    <title
       id="title3624">my_profile_pressed</title>
    <g
       id="g3600">
      <path
         d="m 2.4082098,24.848347 c 0,5.501436 -4.4597951,9.961231 -9.9612312,9.961231 -5.5014366,0 -9.9612316,-4.459795 -9.9612316,-9.961231 0,-5.501436 4.459795,-9.961232 9.9612316,-9.961232 5.5014361,0 9.9612312,4.459796 9.9612312,9.961232 z"
         transform="matrix(1.0879121,0,0,1.0879121,32.217023,-7.332761)"
         id="path3592"
         style="fill:#8f00ff;fill-opacity:1;stroke:none" />
    </g>
    <g
       id="g3603">
      <path
         d="m 11.822121,30.020525 c 0,5.335184 -6.1260926,9.660205 -13.6830104,9.660205 -7.5569178,0 -13.6830106,-4.325021 -13.6830106,-9.660205 0,-5.335184 6.1260928,-9.660205 13.6830106,-9.660205 7.5569178,0 13.6830104,4.325021 13.6830104,9.660205 z"
         transform="matrix(1,0,0,1.0254958,25.860889,6.5751684)"
         id="path3594"
         style="fill:#8f00ff;fill-opacity:1;stroke:none" />
    </g>
    <g
       id="g3606"
       style="fill:#4387f9;fill-opacity:1">
      <path
         d="m 10.371721,37.425358 27.256558,0 c 2.804743,0 5.062713,2.25797 5.062713,5.062713 0,2.804744 -2.25797,5.062714 -5.062713,5.062714 l -27.256558,0 c -2.8047431,0 -5.0627134,-2.25797 -5.0627134,-5.062714 0,-2.804743 2.2579703,-5.062713 5.0627134,-5.062713 z"
         id="rect3598"
         style="fill:#4387f9;fill-opacity:1;stroke:none" />
    </g>
  </g>
</svg>
